<svg xmlns="http://www.w3.org/2000/svg" viewBox="0 0 512 512" xml:space="preserve"><path style="fill:#259245" d="M395.901 7.287H116.099C56.003 7.287 7.286 56.004 7.286 116.099v56.997h497.427v-56.997c.001-60.095-48.716-108.812-108.812-108.812"/><path style="fill:#ed1f34" d="M7.286 395.901c0 60.095 48.717 108.812 108.812 108.812h279.803c60.095 0 108.812-48.717 108.812-108.812v-56.997H7.286z"/><path style="fill:#fff" d="M504.714 173.096h-30.977v-4.974a7.286 7.286 0 1 0-14.572 0v4.974h-23.691v-4.974a7.286 7.286 0 0 0-7.286-7.286 7.286 7.286 0 0 0-7.287 7.286v4.974H397.21v-4.974a7.286 7.286 0 1 0-14.572 0v4.974h-23.69v-4.974a7.286 7.286 0 1 0-14.572 0v4.974h-23.691v-4.974c0-4.024-3.262-7.286-7.287-7.286s-7.286 3.262-7.286 7.286v4.974h-23.691v-4.974a7.286 7.286 0 1 0-14.572 0v4.974h-23.691v-4.974a7.286 7.286 0 1 0-14.572 0v4.974h-23.691v-4.974a7.286 7.286 0 0 0-7.286-7.286 7.286 7.286 0 0 0-7.287 7.286v4.974h-23.691v-4.974a7.286 7.286 0 0 0-7.286-7.286 7.286 7.286 0 0 0-7.287 7.286v4.974h-23.69v-4.974c0-4.024-3.262-7.286-7.287-7.286s-7.286 3.262-7.286 7.286v4.974H91.101v-4.974c0-4.024-3.262-7.286-7.287-7.286s-7.287 3.262-7.287 7.286v4.974h-23.69v-4.974a7.286 7.286 0 1 0-14.572 0v4.974H7.286v165.809h30.977v4.974a7.286 7.286 0 1 0 14.572 0v-4.974h23.691v4.974c0 4.024 3.262 7.286 7.287 7.286s7.287-3.262 7.287-7.286v-4.974h23.691v4.974a7.286 7.286 0 0 0 7.286 7.286 7.286 7.286 0 0 0 7.287-7.286v-4.974h23.69v4.974a7.286 7.286 0 0 0 7.287 7.286 7.285 7.285 0 0 0 7.286-7.286v-4.974h23.691v4.974a7.286 7.286 0 0 0 7.287 7.286 7.285 7.285 0 0 0 7.286-7.286v-4.974h23.691v4.974a7.286 7.286 0 1 0 14.572 0v-4.974h23.691v4.974a7.286 7.286 0 1 0 14.572 0v-4.974h23.691v4.974a7.286 7.286 0 0 0 7.286 7.286 7.286 7.286 0 0 0 7.287-7.286v-4.974h23.691v4.974a7.286 7.286 0 1 0 14.572 0v-4.974h23.69v4.974a7.286 7.286 0 1 0 14.572 0v-4.974h23.691v4.974c0 4.024 3.262 7.286 7.287 7.286s7.286-3.262 7.286-7.286v-4.974h23.691v4.974a7.286 7.286 0 1 0 14.572 0v-4.974h30.977V173.096z"/><path style="fill:#ed1f34" d="M256 284.943c-18.678 0-33.874-15.196-33.874-33.874a33.9 33.9 0 0 1 11.465-25.403 7.287 7.287 0 0 1 9.644 10.926 19.32 19.32 0 0 0-6.535 14.477c0 10.643 8.658 19.301 19.301 19.301s19.301-8.658 19.301-19.301a19.32 19.32 0 0 0-6.535-14.477c-3.017-2.663-3.305-7.268-.641-10.285s7.268-3.305 10.285-.641a33.9 33.9 0 0 1 11.465 25.403c-.002 18.678-15.198 33.874-33.876 33.874"/><path style="fill:#ed1f34" d="M256 290.369a7.285 7.285 0 0 1-7.286-7.286v-36.897a7.286 7.286 0 1 1 14.572 0v36.897a7.286 7.286 0 0 1-7.286 7.286"/><path d="M395.901 512H116.099C52.082 512 0 459.918 0 395.901V116.099C0 52.082 52.082 0 116.099 0h279.803C459.918 0 512 52.082 512 116.099v279.803C512 459.918 459.918 512 395.901 512M116.099 14.573c-55.981 0-101.526 45.544-101.526 101.526v279.803c0 55.982 45.544 101.526 101.526 101.526h279.803c55.981 0 101.526-45.544 101.526-101.526V116.099c0-55.982-45.545-101.526-101.526-101.526z"/></svg>