<svg xmlns="http://www.w3.org/2000/svg" viewBox="0 0 512 512" xml:space="preserve"><path style="fill:#fff" d="M7.286 173.1h497.43v165.81H7.286z"/><path style="fill:#259245" d="M7.286 395.901c0 60.095 48.717 108.812 108.812 108.812h279.803c60.095 0 108.812-48.717 108.812-108.812v-56.997H7.286z"/><path style="fill:#333" d="M395.901 7.286H116.099C56.003 7.286 7.286 56.004 7.286 116.099v56.997h497.427v-56.997c.001-60.095-48.716-108.813-108.812-108.813"/><path style="fill:#ed1f34" d="M35.69 42.79C18.047 62.131 7.286 87.858 7.286 116.099v279.803c0 28.241 10.761 53.968 28.403 73.308L206.257 256z"/><path d="M395.901 0H116.099C82.488 0 52.173 14.362 30.952 37.265c-.467.4-.873.846-1.214 1.328C11.26 59.161 0 86.338 0 116.099v279.803c0 29.76 11.26 56.937 29.738 77.505.34.482.747.928 1.214 1.328C52.173 497.638 82.488 512 116.099 512h279.803C459.918 512 512 459.918 512 395.901V116.099C512 52.082 459.918 0 395.901 0M211.947 251.448l-56.853-71.066h342.333v151.236H155.094l56.853-71.066a7.29 7.29 0 0 0 0-9.104M395.901 14.573c55.981 0 101.526 45.544 101.526 101.526v49.71H143.435L45.421 43.29c18.292-17.762 43.228-28.717 70.678-28.717zM14.573 116.099c0-23.224 7.844-44.648 21.014-61.773L196.926 256 35.587 457.674c-13.17-17.125-21.014-38.549-21.014-61.773zm381.328 381.328H116.099c-27.45 0-52.386-10.955-70.678-28.717l98.015-122.518h353.991v49.71c0 55.981-45.544 101.525-101.526 101.525"/></svg>