<svg xmlns="http://www.w3.org/2000/svg" viewBox="0 0 512 512" xml:space="preserve"><path style="fill:#103b9b" d="M395.901 7.287H116.099C56.003 7.287 7.286 56.003 7.286 116.099v279.803c0 60.095 48.717 108.812 108.812 108.812h279.803c60.095 0 108.812-48.717 108.812-108.812V116.099c.001-60.096-48.716-108.812-108.812-108.812"/><path style="fill:#fff" d="M501.781 90.926c-9.445-39.877-40.83-71.262-80.708-80.707L256 175.293 90.926 10.219c-39.877 9.445-71.262 40.83-80.708 80.707L175.293 256 10.219 421.074c9.445 39.877 40.83 71.262 80.707 80.707L256 336.707l165.074 165.074c39.877-9.445 71.262-40.83 80.707-80.707L336.707 256z"/><path style="fill:#ed1f34" d="M472.843 39.157a109 109 0 0 0-31.742-22.062L229.11 229.109 39.157 39.157a109 109 0 0 0-22.082 31.784l211.737 212.247L39.157 472.843a109.1 109.1 0 0 0 31.742 22.063l212.003-212.003 189.941 189.941a109 109 0 0 0 21.705-30.977L282.592 229.408z"/><path d="M70.897 502.192a7.3 7.3 0 0 1-3.028-.66 115.9 115.9 0 0 1-33.865-23.537 7.29 7.29 0 0 1 0-10.304l184.51-184.509L11.917 76.087a7.29 7.29 0 0 1-1.47-8.174 115.9 115.9 0 0 1 23.557-33.909 7.286 7.286 0 0 1 10.306 0l184.801 184.8L435.949 11.943a7.29 7.29 0 0 1 8.183-1.474 115.9 115.9 0 0 1 33.864 23.536 7.29 7.29 0 0 1 0 10.305L292.891 229.414 499.707 436.72a7.29 7.29 0 0 1 1.444 8.228 116 116 0 0 1-23.155 33.047 7.29 7.29 0 0 1-10.306 0L282.902 293.207 76.052 500.058a7.3 7.3 0 0 1-5.155 2.134m-21.253-29.531a101 101 0 0 0 19.775 13.42L277.75 277.75a7.287 7.287 0 0 1 10.305 0L472.66 462.355a101.2 101.2 0 0 0 13.035-19.046L277.434 234.554a7.287 7.287 0 0 1 .006-10.299L462.356 39.339a101.2 101.2 0 0 0-19.774-13.42L234.263 234.261a7.285 7.285 0 0 1-10.306.001L39.339 49.644a101.2 101.2 0 0 0-13.444 19.821l208.076 208.577a7.286 7.286 0 0 1-.006 10.298z"/><path style="fill:#fff" d="M504.714 188.847H300.768V7.287h-89.536v181.56H7.286v134.306h203.946v181.561h89.536V323.153h203.946z"/><path style="fill:#ed1f34" d="M504.714 231.958H280.042V7.287h-48.084v224.671H7.286v48.084h224.672v224.672h48.084V280.042h224.672z"/><path d="M395.901 0H116.099C52.082 0 0 52.082 0 116.099v279.803C0 459.918 52.082 512 116.099 512h279.803C459.918 512 512 459.918 512 395.901V116.099C512 52.082 459.918 0 395.901 0m101.526 116.099v108.573H287.329V14.573h108.572c55.981 0 101.526 45.544 101.526 101.526M116.099 14.573h108.572v210.098H14.573V116.099c0-55.982 45.545-101.526 101.526-101.526M14.573 395.901V287.329h210.098v210.098H116.099c-55.981 0-101.526-45.544-101.526-101.526m381.328 101.526H287.329V287.329H438.39a7.286 7.286 0 1 0 0-14.572H280.043a7.285 7.285 0 0 0-7.286 7.286v217.385h-33.512V280.042a7.286 7.286 0 0 0-7.286-7.286H14.573v-33.511h217.384a7.285 7.285 0 0 0 7.286-7.286V14.573h33.512v217.385a7.286 7.286 0 0 0 7.286 7.286h217.384v33.511h-25.876a7.286 7.286 0 1 0 0 14.572h25.876V395.9c.002 55.983-45.543 101.527-101.524 101.527"/></svg>