<?xml version="1.0" encoding="UTF-8"?><svg id="Layer_1" xmlns="http://www.w3.org/2000/svg" viewBox="0 0 64 64"><defs><style>.cls-1,.cls-2{stroke-width:0px;}.cls-2{fill:#f2f2f2;}</style></defs><circle class="cls-2" cx="32" cy="32" r="32"/><path class="cls-1" d="m37.74,7.36c-.21.17-.56.23-.86.17-.27-.06-.41-.04-.33.06.1.1.25.19.35.19.1.02.19.04.23.08.02.02.21.06.45.08.27.04.41-.06.39-.25-.02-.16.19-.35.47-.43.41-.12.43-.14.08-.16-.21-.02-.56.1-.78.25Z"/><path class="cls-1" d="m41.11,8.49c-.41.43-.29.72.12.39.16-.14.31-.17.39-.12.06.06.27.02.47-.12.21-.14.23-.19.06-.14-.16.04-.37-.04-.49-.16-.16-.17-.27-.14-.54.14Z"/><path class="cls-1" d="m32.54,8.74c-.31.17-.68.45-.82.64-.14.17-.35.33-.51.33-.14,0-.27.12-.27.23-.02.14-.04.39-.06.54-.02.17-.23.29-.54.31l-.54.02.58.14c.52.12.6.08.74-.45.16-.51.19-.54.35-.25.12.19.27.29.37.23.08-.06.12.23.06.66-.06.45-.02.8.12.87.35.21.25.51-.12.39-.31-.1-.31-.08-.06.16.33.27.29.93-.04.93-.1,0-.14.14-.08.31.08.17.04.25-.1.16-.14-.08-.19-.02-.14.12.04.14.23.27.41.31.25.04.33-.1.33-.54,0-.31.14-.99.31-1.52.23-.7.25-1.03.1-1.32-.12-.23-.21-.64-.21-.95,0-.43-.04-.49-.19-.25-.1.16-.19.19-.19.1,0-.12-.1-.06-.19.1-.16.25-.19.25-.19-.02,0-.17.14-.43.29-.56.25-.19.37-.19.68.1.33.31.39.31.39.04,0-.16-.12-.33-.23-.37-.14-.06-.04-.14.19-.19.29-.08.39-.06.29.1-.08.14.02.12.19-.04.74-.6.08-.82-.91-.31Z"/><path class="cls-1" d="m35.35,8.98c0,.23.04.25.12.1.08-.17.16-.19.35-.04.21.17.17.29-.16.66-.23.23-.49.41-.56.37-.1-.04-.16.1-.16.31,0,.47-.31.7-.45.37-.06-.14-.12-.04-.12.23s.06.62.16.76c.16.23.21.16.33-.29.16-.68.84-1.61.87-1.22.02.16.04.51.06.78.02.29.19.68.39.87.35.35.35.33.21-.12-.1-.27-.16-.64-.14-.84,0-.17-.06-.33-.16-.33-.23,0,0-.82.35-1.22.29-.31.27-.33-.06-.21-.27.12-.31.08-.19-.12.1-.16.08-.21-.06-.12-.12.06-.25.04-.33-.08-.19-.31-.49-.23-.47.14Z"/><path class="cls-1" d="m38.21,9.15c-.66.19-.89.35-.82.56.14.33.47.39.47.1,0-.12.17-.19.39-.19s.39-.1.39-.19c0-.12.12-.19.27-.19s.35-.1.41-.19c.16-.25.02-.23-1.11.12Z"/><path class="cls-1" d="m42.08,9.13c-.21.14-.51.21-.68.17-.21-.08-.19-.02.06.14.21.14.6.29.86.33.41.06.45.02.21-.23-.21-.27-.17-.31.17-.31.21,0,.41-.1.41-.19,0-.27-.62-.23-1.03.1Z"/><path class="cls-1" d="m39.28,9.44c-.1.1-.49.35-.84.52-.86.43-.91.72-.19.74.37.02.58-.08.58-.23s.06-.27.16-.27c.17,0,.68-.78.58-.89-.06-.04-.17.02-.29.14Z"/><path class="cls-1" d="m43.05,9.36c-.27.25-.12.39.35.29.29-.04.49,0,.49.14,0,.12-.23.23-.52.23-.47.04-.49.04-.1.12.23.04.43.17.43.29s-.17.16-.39.1-.39-.02-.39.08c0,.39,1.22,0,1.59-.51.23-.31-1.17-1.03-1.46-.74Z"/><path class="cls-1" d="m33.31,9.83c.06.12.04.27-.08.35-.19.12-.29.49-.25.95,0,.14.12.19.23.12.16-.1.16-.16,0-.27-.17-.1-.16-.19.06-.37.23-.19.33-.1.56.7l.29.93.02-.86c.02-.54.14-.95.37-1.13.21-.19.16-.19-.21.02-.52.31-.54.31-.72-.17-.1-.27-.23-.49-.29-.49-.08,0-.06.1.02.21Z"/><path class="cls-1" d="m36.44,9.75c-.21.21-.16.84.08.84.12,0,.17-.16.12-.37-.06-.29,0-.33.33-.25.21.06.29.14.16.19-.12.04-.23.21-.23.39,0,.29.04.27.35-.02.31-.33.31-.37-.04-.64-.43-.31-.58-.33-.76-.14Z"/><path class="cls-1" d="m40.45,9.95c.08.12.06.27-.06.35-.1.06-.19.02-.19-.08,0-.54-1.15.06-1.17.62,0,.17.82.04,1.32-.23.37-.19.62-.12.62.19,0,.1-.12.12-.27.06-.33-.14-1.09.23-1.09.54,0,.14.08.14.27-.02.14-.12.39-.17.54-.12.17.08.45-.02.62-.19s.31-.23.31-.12c0,.1.17.16.39.12s.39.04.39.16c0,.14.08.12.19-.06.29-.45.23-.64-.17-.52-.23.06-.43-.02-.49-.19-.06-.16-.21-.21-.33-.16-.1.08-.39-.02-.6-.23-.23-.19-.35-.25-.29-.12Z"/><path class="cls-1" d="m44.66,10.39c0,.1.1.19.19.19.12,0,.19.14.19.29,0,.25.04.27.27.06.19-.17.21-.33.08-.51-.23-.27-.74-.31-.74-.04Z"/><path class="cls-1" d="m45.5,11.31c0,.14.21.25.47.25.31,0,.43.08.33.23-.08.14-.06.16.08.08s.23-.04.23.1.06.19.12.14c.06-.08.02-.29-.1-.51-.23-.45-1.13-.68-1.13-.29Z"/><path class="cls-1" d="m29.7,11.56c0,.21-.08.39-.19.39-.1,0-.12.14-.06.33.08.19.04.27-.08.19-.25-.16-.76.39-.56.58.08.08.21.02.31-.14.12-.16.19-.19.19-.08s-.06.27-.14.35c-.21.19-.27.89-.08.89.1,0,.14.17.08.39-.06.23,0,.39.14.39s.19-.12.14-.27c-.06-.14,0-.37.12-.49.16-.16.16-.21-.02-.21-.39,0-.25-.52.27-1.11.27-.29.45-.45.39-.33s.02.21.16.21c.16,0,.23-.12.17-.27-.06-.14-.17-.25-.27-.25s-.17-.21-.17-.49-.08-.49-.19-.49c-.1,0-.19.17-.19.39Z"/><path class="cls-1" d="m33.22,11.77c.02.16-.02.43-.12.62-.21.49.06,1.3.41,1.3.27,0,.27-.06.08-.29-.16-.17-.19-.56-.14-.97.06-.37.02-.72-.08-.8-.12-.06-.17,0-.16.14Z"/><path class="cls-1" d="m44.51,12.26c.08.08.51.16.95.19,1.05.08.82-.16-.27-.27-.45-.04-.76,0-.68.08Z"/><path class="cls-1" d="m42.78,12.57c-.47.1-.84.27-.84.39,0,.1.14.14.31.08.17-.08.45-.02.58.1.21.17.49.16,1.17-.02,1.4-.39.31-.87-1.22-.54Z"/><path class="cls-1" d="m46.59,12.55c-.25.16-.1.25.29.19.41-.08.82.21,1.05.74.16.33.43.6.66.64s.45.17.51.33c.08.21-.04.23-.45.14l-.52-.14.64.89c.66.91.82,1.07.64.58-.08-.17,0-.29.19-.29.17,0,.31.14.31.29s.1.29.19.29c.12,0,.19.17.19.39s.1.39.21.39c.14,0,.17.19.14.49-.06.25-.02.43.06.37.16-.1.43.66.35,1.01-.08.41.04.54.23.27.17-.23.19-.23.1.06-.06.19-.12.54-.12.74,0,.21-.06.35-.14.31-.1-.06-.12.35-.08.87.04.62-.02.93-.14.86s-.16.04-.1.27c.06.21-.04.76-.21,1.19-.19.45-.41,1.24-.51,1.77-.19,1.01-.72,1.96-.99,1.79-.19-.12.14-.87.49-1.09.16-.12.16-.16,0-.16-.12,0-.33.14-.47.29-.21.25-.29.25-.43.06-.1-.16-.12-.02-.04.33.12.62-.56,2.74-1.42,4.43-.25.52-.43.99-.39,1.03.21.21,2.1-2.72,3.11-4.8.86-1.79,1.2-2.78,1.59-4.64l.51-2.37-.39-1.73c-.45-1.96-1.09-3.36-1.42-3.17-.12.08-.16.06-.1-.04.14-.25-.08-.62-.45-.7-.16-.04-.68-.47-1.19-.95-.97-.95-1.52-1.2-1.94-.93Z"/><path class="cls-1" d="m28.18,13.8c-.29.62-.29,1.13-.02.97.12-.08.25.06.31.27.06.23.21.39.33.35.25-.1.17-1.09-.12-1.44-.14-.17-.14-.25.02-.25.14,0,.17-.1.12-.19-.19-.33-.41-.21-.64.29Z"/><path class="cls-1" d="m45.83,13.5l-.49.16.43.14c.25.08.41.21.35.29s.04.19.17.25c.16.06.31.02.35-.1.06-.14.23-.17.45-.1.33.14.33.16,0,.41-.31.23-.29.23.25.16.56-.08.89-.43.43-.43-.1,0-.19-.17-.19-.39,0-.27-.1-.35-.33-.25-.21.08-.27.06-.17-.1.16-.27-.49-.29-1.24-.04Z"/><path class="cls-1" d="m43.42,13.85c-.52.27-.54.31-.23.54.25.17.27.25.08.33-.14.04-.1.06.1.04.21-.04.33.06.33.31,0,.23.1.31.27.25.39-.16.21-.51-.43-.93-.47-.29-.47-.33-.1-.25.23.06.47,0,.51-.12s.21-.16.43-.06c.27.1.31.17.14.29-.39.23.23.66.74.51.27-.08.43-.02.51.19.08.17.43.43.8.58.82.35.84.35.84.1,0-.17-.78-.6-1.19-.66-.06-.02-.23-.16-.41-.31-1.13-1.07-1.57-1.24-2.37-.82Z"/><path class="cls-1" d="m37.36,14.77c-.06.16-.25.29-.41.29s-.23.08-.16.19c.16.25.68.02.68-.33,0-.16.1-.21.19-.16.31.19.23.87-.1.87-.19,0-.29.17-.27.52.02.43.04.45.12.16.14-.51.49-.72.68-.43.08.14.16-.04.16-.39,0-.72-.68-1.3-.89-.74Z"/><path class="cls-1" d="m31.53,14.96c.06.17.04.25-.06.19s-.23-.02-.29.08c-.25.39.45.35.93-.06l.54-.43-.62-.04c-.51-.04-.6.02-.51.25Z"/><path class="cls-1" d="m27.35,15.62c-.23.41-.27.62-.12.78s.12.21-.16.21c-.31,0-.33.04-.12.17.23.16.23.23-.04.51-.51.49-.74,1.01-.6,1.34.06.17.04.31-.06.31s-.17.16-.17.33c-.06,1.42-.31,3.65-.49,4.08-.1.27-.14.64-.08.8.16.43-.27,2.37-.64,2.95-.17.27-.29.6-.27.72.04.14-.08.49-.25.78l-.31.54.08-.56c.06-.29-.04-.8-.21-1.09-.29-.49-.27-.56.12-1.11.23-.33.43-.87.43-1.19,0-.74.33-.97.68-.51.33.43.39.21.1-.33s-.95-.47-1.19.14c-.37.97-.95,3.96-.91,4.68l.02.74.08-.64c.08-.64.1-.64.45-.33.33.31.35.41.1.97-.14.37-.19.72-.14.8.08.1-.02.06-.19-.1-.29-.21-.31-.17-.14.49.16.51.14,1.07,0,1.9-.12.66-.25,1.57-.31,2.06-.04.49-.1.91-.1.97-.02.06-.06.35-.08.68-.04.31-.08.62-.1.68-.04.06-.08.47-.12.91-.08,1.15-.84,3.38-1.34,3.91-.21.25-.91.8-1.55,1.22-1.05.7-1.24.76-2.49.76s-1.4.06-1.9.54c-.62.62-.91,2.16-.7,3.6.14.89,1.11,2.62,2.33,4.12.89,1.11,1.11,1.28,1.32,1.15.08-.06.1.04.04.19-.14.37,3.17,3.13,4.78,3.98.64.35,2.31.97,3.69,1.38,4.59,1.38,6.1,1.24,6.7-.58.17-.52.35-1.38.41-1.92.04-.52.21-1.34.39-1.81.27-.76.64-5.05.43-4.82-.06.06-.21.93-.33,1.94s-.35,2.23-.52,2.72-.35,1.05-.39,1.26c-.51,2.57-.62,2.8-1.03,2.08-.12-.17-.21-.25-.21-.16s.14.33.29.51c.49.54.06,1.13-.72.99-.1,0-.16.1-.16.21-.02.14-.17.06-.37-.19-.43-.51-.6-.54-.6-.14,0,.33-.49.39-.68.1-.06-.12.02-.25.17-.31.17-.06.25-.19.19-.31-.08-.1-.25-.08-.43.1-.41.33-1.4.41-1.4.1,0-.17-.06-.17-.21-.02-.33.33-1.24-.08-1.5-.68-.12-.29-.17-.35-.12-.12.06.27-.02.41-.21.41-.17,0-.27-.12-.21-.25.06-.16,0-.31-.1-.39-.12-.06-.17-.33-.12-.58.04-.25,0-.41-.08-.35-.1.06-.17.31-.17.54,0,.25-.12.56-.27.68-.21.19-.31.16-.41-.17s-.19-.37-.41-.17c-.19.16-.27.16-.27,0,0-.12-.1-.21-.21-.21-.14,0-.35-.16-.51-.35q-.27-.31-.17.02c.1.29,0,.27-.49-.14-.33-.27-.68-.51-.8-.51-.21,0-1.89-1.2-2.91-2.12-.31-.25-.54-.58-.54-.74,0-.14-.08-.25-.19-.25-.27,0-1.13-.91-1.46-1.57-.17-.31-.37-.52-.47-.49-.08.06-.52-.62-.97-1.5-.64-1.24-.82-1.79-.8-2.47.06-1.55.17-1.89.78-2.14.33-.14.52-.31.47-.41s-.19-.14-.29-.08c-.1.08-.17.04-.17-.06,0-.25.62-.35,1.98-.33.62,0,1.13-.06,1.13-.14,0-.1.06-.14.16-.12.25.08,1.28-.56,1.77-1.09.27-.27.58-.51.7-.51.29,0,1.07-1.81,1.07-2.45,0-.23.08-.51.19-.56s.19,0,.19.14c0,.6,2.18,5.42,2.7,6,.31.35.56.68.54.74-.14.41,2.82,2.55,3.5,2.55.16,0,.21.08.16.19-.14.21.02.23,2.14.27,1.38.04,2.57-.27,3.28-.86.45-.37,1.83-1.61,3.21-2.9.58-.54,1.13-.93,1.22-.87.08.06.16,0,.16-.12s.23-.47.54-.76c.86-.87,2.68-3.69,3.46-5.36.39-.86.78-1.59.86-1.65.16-.14,1.36-3.36,1.28-3.44-.06-.06-.62,1.15-.8,1.69-.17.52-.72,1.55-.87,1.65-.21.14-1.07,1.73-.95,1.77.04.02-.1.21-.29.45-.21.23-.31.41-.23.41.06,0-.1.35-.35.76-.27.41-.45.8-.39.84.1.12-2.39,2.64-2.88,2.9-.19.1-.35.29-.35.43s-.52.62-1.17,1.11c-.62.49-1.15.93-1.15,1.01-.02.1-.12.16-.23.16-.14,0-.49.27-.8.6-.35.37-.7.54-.87.49-.19-.08-.25-.04-.19.14.14.37-.54.74-1.5.84-.45.06-.91.14-1.03.17-.14.04-.25-.02-.25-.14s-.14-.08-.35.1c-.39.35-.86.17-.93-.37-.02-.17-.16-.43-.27-.54-.16-.16-.17-.12-.08.16.12.31.08.33-.33.21-.66-.19-1.19-.7-1.05-1.01.04-.16,0-.21-.1-.16-.12.06-.19.27-.19.45,0,.23-.12.14-.39-.25-.21-.33-.54-.58-.72-.58-.19,0-.35-.14-.37-.29-.08-1.07-.08-1.09-.29-.78-.16.23-.23.23-.31.04-.06-.14-.29-.49-.52-.78-.64-.8-.95-1.54-.82-1.89.06-.19.23-.29.37-.23.16.06.27-.02.27-.17,0-.35-.21-.35-.52.02-.29.35-.66.17-.51-.23.06-.16.04-.23-.06-.17s-.21-.06-.27-.27-.02-.39.08-.39.17-.16.16-.35c0-.19-.06-.23-.12-.1-.04.14-.16.25-.25.25-.17,0-.47-.95-.41-1.32.02-.12-.04-.23-.12-.23-.14,0-.23-.56-.25-1.63-.02-.21.06-.43.16-.49s.17-.66.16-1.32c0-.64.06-1.15.14-1.09.08.04.1-.16.06-.45-.06-.29-.02-.66.08-.86.1-.17.23-1.07.29-1.96.17-2.2.37-2.99,1.15-4.78.37-.84.93-2.25,1.24-3.17.66-1.9.62-1.81.76-2.33.08-.25.33-.45.66-.52.31-.06.56-.17.56-.25s.27-.43.58-.78c.54-.58.56-.62.16-.52s-.39.08.1-.29c.43-.31.49-.45.31-.66s-.16-.29.1-.39c.17-.06.31-.19.31-.27s-.31,0-.68.16c-.64.29-.99.74-.41.51.16-.06.33,0,.41.12.06.12.06.19-.04.17-.41-.08-.66.04-.52.25.1.16.02.17-.23.08-.27-.1-.31-.08-.16.08.25.25-.27,1.61-.54,1.44-.08-.06-.16,0-.16.14,0,.17-.06.17-.27,0s-.29-.14-.37.17c-.06.21-.19.39-.33.39-.25,0-.23-1.24.06-1.81.1-.19.21-.6.25-.87.14-.82.25-1.05.45-.91.12.06.16-.1.1-.39-.06-.39-.02-.45.23-.35.23.08.29.06.19-.1-.08-.14-.06-.23.06-.23.1,0,.21.12.27.23.06.19.16.19.35-.02.16-.16.17-.21.06-.16-.14.08-.37-.08-.54-.35-.37-.54-.43-1.36-.1-1.15.14.08.19.02.14-.14-.16-.49-.64-.39-.95.19Z"/><path class="cls-1" d="m38.89,15.45c-.02.29.06.37.39.31.23-.06.47-.1.52-.12.06-.04.17-.04.27-.02s.08-.1-.08-.25c-.35-.45-1.07-.39-1.11.08Z"/><path class="cls-1" d="m46.57,16.4c.45.45.91.8,1.03.8.25,0-.89-1.07-1.48-1.38-.21-.12-.02.14.45.58Z"/><path class="cls-1" d="m30.86,16.2c0,.29.1.39.39.35.52-.08.99-.52.54-.52-.17,0-.45-.06-.62-.12-.23-.08-.31,0-.31.29Z"/><path class="cls-1" d="m40.12,16.52c-.31.47-.31.49.12.51.25.02.51.02.58,0,.17-.02-.02.54-.31.95-.12.16.04.08.33-.17.29-.27.52-.37.52-.25,0,.14.14.23.29.23s.29-.14.29-.31c0-.16-.1-.23-.21-.16-.14.08-.14-.02.02-.31.16-.31.17-.39.02-.29-.39.21-1.38-.1-1.24-.41.16-.43-.06-.31-.41.21Z"/><path class="cls-1" d="m44.72,16.54c.29.16.49.37.43.45-.04.1.06.29.25.43.29.25.31.23.06-.08-.21-.27-.21-.33.02-.33.14,0,.27-.17.29-.39.04-.33-.08-.39-.78-.39l-.82.02.54.29Z"/><path class="cls-1" d="m41.98,18.46c-.12.27-.16.47-.08.47.49-.08.8.08.91.41.06.21.19.39.29.39.08,0,.19-.17.25-.39.06-.27,0-.39-.21-.39-.16,0-.25-.06-.17-.12.12-.12-.45-.86-.66-.86-.06,0-.21.21-.33.49Z"/><path class="cls-1" d="m30.52,24.02c-.95.17-1.24.33-1.11.54.04.1-.14.14-.39.1-.6-.06-.6,0-.02.39.47.29.49.27.87-.33.27-.43.41-.52.41-.29,0,.19-.1.35-.23.35-.49,0,.08.25.66.29.35.04.76.06.89.08.14,0,.21.1.16.17-.12.17,3.44,1.79,3.94,1.79.37,0,.93-.52.76-.7-.06-.06-.35-.14-.66-.19s-.6-.17-.66-.27-.21-.1-.37-.02c-.14.1-.49.04-.82-.12-.72-.37-.72-.52.02-.39.33.08.58.04.58-.06,0-.19-.1-.21-1.26-.27-.35,0-.56-.12-.52-.27.02-.14-.16-.23-.43-.23s-.54-.1-.62-.23c-.08-.12-.06-.16.06-.1.12.08.25,0,.33-.16.12-.33-.25-.35-1.59-.08Z"/><path class="cls-1" d="m47.56,25.3c-.02.19-.02.41,0,.49.02.16-.29.23-.6.17-.21-.02-.19.52.02.64.08.06.29-.04.45-.23.35-.39.56-1.4.33-1.4-.1,0-.19.16-.19.33Z"/><path class="cls-1" d="m36.73,26.66c-.14.06-.33.27-.45.49-.19.37-.17.39.31.27.43-.12.51-.08.43.16-.17.45.12.39.39-.08.21-.31.19-.35-.02-.27-.17.06-.31-.04-.35-.27-.04-.19-.17-.33-.31-.29Z"/><path class="cls-1" d="m29.5,27.11c-.19.14.08.16.87.08.64-.08,1.2-.16,1.24-.19.19-.17-1.87-.06-2.12.12Z"/><path class="cls-1" d="m29.66,27.88c-.52.33-.43.54.31.7.56.1.66.17.58.56-.06.37,0,.43.29.35s.39.02.45.37c.04.27.12.37.19.23s-.08-.54-.33-.95c-.52-.76-.49-1.07.12-1.07.25,0,.37.14.37.47,0,1.01,1.24,1.4,1.85.58.17-.25.27-.21.62.27l.41.54-.62-.08c-.43-.06-.54-.02-.41.14.12.12.43.23.68.25.41.06.49-.02.43-.43-.08-.7-.52-1.28-1.2-1.57-.31-.16-.58-.31-.58-.37,0-.21-2.82-.19-3.15,0Z"/><path class="cls-1" d="m41.63,29.24c-.6.23-.76.58-.27.58.23,0,.37.08.31.16-.04.08.19.27.52.41.35.16,1.03.47,1.52.7.82.41.91.41,1.11.12.14-.17.21-.23.21-.12-.08.6.06,1.05.33,1.15.16.06.25.04.19-.04-.04-.08.1-.17.31-.17.37-.04.37-.02.08.31-.39.43-.39.72,0,.87.27.1.29.08.1-.16-.14-.17-.16-.33-.04-.39.1-.06.21,0,.25.12.06.16.17.1.31-.17.17-.33.16-.58-.17-1.3-.21-.49-.45-.89-.52-.91s-.35-.04-.62-.08-.7-.14-.95-.21c-.39-.12-.45-.08-.35.17.08.21.04.27-.17.19-.16-.06-.25-.23-.17-.39.06-.21.02-.25-.19-.17-.16.06-.29.02-.29-.08,0-.12-.17-.19-.41-.19-.21,0-.33-.08-.27-.19.08-.12-.02-.14-.21-.06-.23.08-.29.06-.19-.1q.16-.27-.39-.04Z"/><path class="cls-1" d="m39.01,30.41c0,.06-.08,1.19-.16,2.49-.1,1.44-.23,2.47-.37,2.55-.23.14-.23,2.55.02,2.55.08,0,.14-.54.14-1.22s.1-1.32.19-1.42c.12-.12.21-.52.23-.93.02-.39.1-.76.19-.82.08-.06.16-.27.16-.49,0-.31.1-.37.45-.27.33.1.37.08.14-.08-.25-.19-.25-.23,0-.41.45-.29.52-.23.64.37.08.33.31.68.54.8.35.19.52.16,1.01-.19.56-.43.6-.43.86-.08.27.39.12.66-.45.74-.19.04-.39.16-.43.27-.08.27.47.31.62.06.16-.23.58-.16.97.16.49.41.56.14.17-.58-.56-.99-1.69-1.79-2.58-1.85-.43-.02-.93-.16-1.13-.29-.17-.14-.27-.17-.19-.1.14.17-.37.68-.66.7-.23,0-.17-.45.14-1.05.35-.66.37-.76.08-.58-.12.06-.29,0-.39-.14-.1-.16-.17-.23-.19-.17Z"/><path class="cls-1" d="m33.37,34.37c-.37.27-1.03,1.24-1.07,1.63-.1.58.66,1.77,1.13,1.79.08,0,.1-.14.02-.31-.1-.25-.04-.29.33-.17.31.1.41.08.35-.12-.06-.16-.35-.27-.66-.25-.93.02-1.15-.72-.45-1.69.25-.35.56-.56.86-.56.43,0,.91-.37.54-.41-.08,0-.29-.04-.47-.08-.16-.02-.43.04-.58.17Z"/><path class="cls-1" d="m33.26,38.46c.08.19.04.49-.08.64-.14.14-.17.31-.1.39.06.06.12,0,.12-.14,0-.17.1-.14.29.12.25.35.27.35.16-.1-.08-.29-.04-.43.08-.35s.16.47.12.87c-.06.54-.02.76.17.76.16,0,.29-.14.31-.31,0-.17.06-.6.1-.95.06-.35.04-.6-.02-.54-.04.06-.35-.08-.68-.31-.52-.39-.58-.39-.47-.08Z"/><path class="cls-1" d="m36.21,38.48c-.47.16-.62.27-.37.27.21.02.47.1.58.21.1.1.39.14.64.06.33-.08.37-.16.17-.27-.19-.14-.21-.17,0-.17.14,0,.19-.1.14-.19-.14-.23-.16-.23-1.17.1Z"/><path class="cls-1" d="m31.29,38.61c-.14.14-.82.25-1.54.27-.95.02-1.36.1-1.5.33-.31.51-.02.56.76.19.52-.25.76-.27.82-.14.08.25.84.14.84-.12,0-.08.17-.19.39-.25.41-.1.54.14.19.31-.12.06-.1.08.04.06s.27-.23.27-.47c.02-.51.04-.51-.27-.19Z"/><path class="cls-1" d="m35.53,39.82c0,.16.1.35.23.43.14.1.16.06.06-.14-.14-.23-.12-.21.17,0,.23.21.31.45.23.84-.06.29-.02.58.08.64.12.06.19-.04.19-.23.02-.33.04-.33.29.02.41.54.37.04-.04-.99-.27-.64-.45-.84-.78-.84-.25,0-.45.12-.45.27Z"/><path class="cls-1" d="m28.63,40.15l-.78.35.97-.1q.97-.12,1.9.89c.52.56.97.97,1.01.93s-.17-.35-.51-.7c-.76-.8-.47-.78,1.17.06.72.37,1.48.68,1.71.68.91,0,2,.62,1.42.82-.1.02.29.06.87.06,1.89,0,1.17-.49-1.44-.99-.8-.16-1.71-.45-2.04-.64-.78-.49-3.07-1.63-3.32-1.67-.1-.02-.54.12-.97.31Z"/><path class="cls-1" d="m37.2,41.78c-.06.17,0,.29.17.29.16,0,.29.06.29.14,0,.1.21.25.49.39.7.31.64-.14-.1-.68-.68-.51-.7-.51-.86-.14Z"/><path class="cls-1" d="m31.35,43.59c.06.16.1.31.1.35s.17.08.39.08.39.1.39.23c0,.12.12.06.27-.16.35-.47.14-.72-.66-.74-.41-.02-.56.06-.49.23Z"/><path class="cls-1" d="m33.12,43.96c.06.29.14.58.19.68.17.27,1.01.17,1.13-.16.06-.16.04-.25-.06-.19s-.41-.12-.68-.37c-.66-.6-.7-.6-.58.04Z"/></svg>