<svg xmlns="http://www.w3.org/2000/svg" viewBox="0 0 511.999 511.999" xml:space="preserve" version="1.1" xmlns:xlink="http://www.w3.org/1999/xlink">
  <path style="fill:#b6e892" d="M454.657 25.051a23.27 23.27 0 0 0-17.485-20.008c-4.107-1.026-101.277-24.406-164.716 39.033a139 139 0 0 0-16.453 19.823l-.002-.002a139.5 139.5 0 0 0-16.455-19.82C203.127 7.659 155.46.015 121.886.015c-26.632 0-46.235 4.824-47.056 5.027a23.28 23.28 0 0 0-17.488 20.009c-.123 1.105-2.968 27.39-.047 59.53 4.146 45.607 17.48 79.963 39.632 102.113 36.419 36.419 84.086 44.063 117.662 44.063 6.527 0 12.631-.292 18.138-.731v41.497h46.545v-41.475c5.5.438 11.605.725 18.157.725 34.574 0 81.567-8.002 117.643-44.079 22.152-22.15 35.487-56.506 39.632-102.113 2.921-32.14.076-58.425-.047-59.53"/>
  <path style="fill:#ffb655" d="M387.874 271.522H124.125c-12.852 0-23.272 10.418-23.272 23.272 0 12.852 10.42 23.272 23.272 23.272h14.078l19.248 173.231C158.76 503.084 168.722 512 180.58 512h150.836c11.859 0 21.821-8.916 23.129-20.703l19.247-173.231h14.078c12.852 0 23.272-10.42 23.272-23.272.004-12.853-10.415-23.272-23.268-23.272"/>
  <path style="fill:#ee8700" d="M232.728 271.522H124.125c-12.852 0-23.272 10.418-23.272 23.272 0 12.852 10.42 23.272 23.272 23.272h14.078l19.248 173.231C158.76 503.084 168.722 512 180.58 512h75.418V271.522z"/>
  <path style="fill:#7ed63e" d="M256 63.897a139.5 139.5 0 0 0-16.455-19.82C203.127 7.659 155.461.015 121.886.015c-26.632 0-46.235 4.824-47.056 5.027a23.28 23.28 0 0 0-17.488 20.009c-.123 1.105-2.968 27.39-.047 59.53 4.146 45.605 17.48 79.963 39.632 102.113 36.419 36.419 84.086 44.063 117.662 44.063 6.527 0 12.631-.292 18.138-.731v41.497H256z"/>
</svg>
